<svg width="216" height="40" viewBox="0 0 216 40" fill="none" xmlns="http://www.w3.org/2000/svg">
<path d="M16.6032 28C16.4592 28 16.3312 27.952 16.2192 27.856C16.1232 27.744 16.0752 27.616 16.0752 27.472C16.0752 27.408 16.0832 27.352 16.0992 27.304L21.4512 11.992C21.4992 11.816 21.6112 11.64 21.7872 11.464C21.9632 11.288 22.2112 11.2 22.5312 11.2H27.7392C28.0592 11.2 28.3072 11.288 28.4832 11.464C28.6592 11.64 28.7712 11.816 28.8192 11.992L34.1712 27.304C34.1872 27.352 34.1952 27.408 34.1952 27.472C34.1952 27.616 34.1392 27.744 34.0272 27.856C33.9312 27.952 33.8112 28 33.6672 28H29.2272C28.9232 28 28.6992 27.936 28.5552 27.808C28.4272 27.664 28.3392 27.528 28.2912 27.4L27.7152 25.816H22.5552L21.9792 27.4C21.9312 27.528 21.8432 27.664 21.7152 27.808C21.5872 27.936 21.3632 28 21.0432 28H16.6032ZM23.7792 21.136H26.4912L25.1232 16.672L23.7792 21.136ZM42.7219 28.24C41.1859 28.24 39.8259 28.016 38.6419 27.568C37.4579 27.12 36.5139 26.416 35.8099 25.456C35.1219 24.496 34.7459 23.256 34.6819 21.736C34.6659 21.08 34.6579 20.376 34.6579 19.624C34.6579 18.872 34.6659 18.152 34.6819 17.464C34.7459 15.976 35.1299 14.752 35.8339 13.792C36.5539 12.832 37.5059 12.12 38.6899 11.656C39.8899 11.192 41.2339 10.96 42.7219 10.96C43.7459 10.96 44.7299 11.08 45.6739 11.32C46.6339 11.544 47.4979 11.904 48.2659 12.4C49.0339 12.896 49.6419 13.536 50.0899 14.32C50.5539 15.088 50.7939 16.016 50.8099 17.104C50.8099 17.248 50.7539 17.376 50.6419 17.488C50.5459 17.584 50.4259 17.632 50.2819 17.632H45.3859C45.1299 17.632 44.9379 17.584 44.8099 17.488C44.6979 17.376 44.5939 17.192 44.4979 16.936C44.3219 16.424 44.0819 16.08 43.7779 15.904C43.4739 15.728 43.1139 15.64 42.6979 15.64C42.1699 15.64 41.7459 15.784 41.4259 16.072C41.1219 16.344 40.9539 16.848 40.9219 17.584C40.8739 18.896 40.8739 20.24 40.9219 21.616C40.9539 22.352 41.1219 22.864 41.4259 23.152C41.7459 23.424 42.1699 23.56 42.6979 23.56C43.1139 23.56 43.4739 23.464 43.7779 23.272C44.0979 23.08 44.3379 22.744 44.4979 22.264C44.5779 21.992 44.6819 21.808 44.8099 21.712C44.9379 21.616 45.1299 21.568 45.3859 21.568H50.2819C50.4259 21.568 50.5459 21.624 50.6419 21.736C50.7539 21.832 50.8099 21.952 50.8099 22.096C50.7939 23.184 50.5539 24.12 50.0899 24.904C49.6419 25.672 49.0339 26.304 48.2659 26.8C47.4979 27.296 46.6339 27.664 45.6739 27.904C44.7299 28.128 43.7459 28.24 42.7219 28.24ZM51.6657 28C51.5217 28 51.3937 27.952 51.2817 27.856C51.1857 27.744 51.1377 27.616 51.1377 27.472C51.1377 27.408 51.1457 27.352 51.1617 27.304L56.5137 11.992C56.5617 11.816 56.6737 11.64 56.8497 11.464C57.0257 11.288 57.2737 11.2 57.5937 11.2H62.8017C63.1217 11.2 63.3697 11.288 63.5457 11.464C63.7217 11.64 63.8337 11.816 63.8817 11.992L69.2337 27.304C69.2497 27.352 69.2577 27.408 69.2577 27.472C69.2577 27.616 69.2017 27.744 69.0897 27.856C68.9937 27.952 68.8737 28 68.7297 28H64.2897C63.9857 28 63.7617 27.936 63.6177 27.808C63.4897 27.664 63.4017 27.528 63.3537 27.4L62.7777 25.816H57.6177L57.0417 27.4C56.9937 27.528 56.9057 27.664 56.7777 27.808C56.6497 27.936 56.4257 28 56.1057 28H51.6657ZM58.8417 21.136H61.5537L60.1857 16.672L58.8417 21.136ZM71.2229 28C71.0469 28 70.8949 27.936 70.7669 27.808C70.6389 27.68 70.5749 27.528 70.5749 27.352V11.848C70.5749 11.672 70.6389 11.52 70.7669 11.392C70.8949 11.264 71.0469 11.2 71.2229 11.2H78.1349C79.6389 11.2 80.9829 11.456 82.1669 11.968C83.3509 12.464 84.2949 13.2 84.9989 14.176C85.7189 15.152 86.1029 16.36 86.1509 17.8C86.1829 18.488 86.1989 19.096 86.1989 19.624C86.1989 20.136 86.1829 20.72 86.1509 21.376C86.0869 22.88 85.7189 24.128 85.0469 25.12C84.3749 26.096 83.4549 26.824 82.2869 27.304C81.1349 27.768 79.7909 28 78.2549 28H71.2229ZM76.5749 23.32H78.1349C78.4869 23.32 78.7989 23.256 79.0709 23.128C79.3589 22.984 79.5909 22.768 79.7669 22.48C79.9429 22.192 80.0389 21.824 80.0549 21.376C80.0869 20.912 80.1029 20.496 80.1029 20.128C80.1189 19.76 80.1189 19.392 80.1029 19.024C80.1029 18.64 80.0869 18.232 80.0549 17.8C80.0229 17.128 79.8069 16.64 79.4069 16.336C79.0229 16.032 78.5589 15.88 78.0149 15.88H76.5749V23.32ZM88.9885 28C88.8125 28 88.6605 27.936 88.5325 27.808C88.4045 27.68 88.3405 27.528 88.3405 27.352V11.848C88.3405 11.672 88.4045 11.52 88.5325 11.392C88.6605 11.264 88.8125 11.2 88.9885 11.2H101.301C101.477 11.2 101.629 11.264 101.757 11.392C101.885 11.52 101.949 11.672 101.949 11.848V15.232C101.949 15.408 101.885 15.56 101.757 15.688C101.629 15.816 101.477 15.88 101.301 15.88H94.1005V17.392H100.773C100.949 17.392 101.101 17.456 101.229 17.584C101.357 17.712 101.421 17.864 101.421 18.04V21.16C101.421 21.336 101.357 21.488 101.229 21.616C101.101 21.744 100.949 21.808 100.773 21.808H94.1005V23.32H101.493C101.669 23.32 101.821 23.384 101.949 23.512C102.077 23.64 102.141 23.792 102.141 23.968V27.352C102.141 27.528 102.077 27.68 101.949 27.808C101.821 27.936 101.669 28 101.493 28H88.9885ZM104.996 28C104.82 28 104.668 27.936 104.54 27.808C104.412 27.68 104.348 27.528 104.348 27.352V11.848C104.348 11.672 104.412 11.52 104.54 11.392C104.668 11.264 104.82 11.2 104.996 11.2H108.788C109.108 11.2 109.348 11.288 109.508 11.464C109.668 11.64 109.772 11.768 109.82 11.848L113.3 17.608L116.78 11.848C116.828 11.768 116.932 11.64 117.092 11.464C117.252 11.288 117.492 11.2 117.812 11.2H121.604C121.78 11.2 121.932 11.264 122.06 11.392C122.188 11.52 122.252 11.672 122.252 11.848V27.352C122.252 27.528 122.188 27.68 122.06 27.808C121.932 27.936 121.78 28 121.604 28H117.26C117.084 28 116.932 27.936 116.804 27.808C116.676 27.68 116.612 27.528 116.612 27.352V20.776L115.028 23.368C114.948 23.496 114.836 23.632 114.692 23.776C114.564 23.904 114.38 23.968 114.14 23.968H112.46C112.22 23.968 112.028 23.904 111.884 23.776C111.756 23.632 111.652 23.496 111.572 23.368L109.988 20.776V27.352C109.988 27.528 109.924 27.68 109.796 27.808C109.668 27.936 109.516 28 109.34 28H104.996ZM129.751 28C129.575 28 129.423 27.936 129.295 27.808C129.167 27.68 129.103 27.528 129.103 27.352V22.624L123.703 11.944C123.687 11.912 123.671 11.88 123.655 11.848C123.655 11.8 123.655 11.76 123.655 11.728C123.655 11.584 123.703 11.464 123.799 11.368C123.911 11.256 124.039 11.2 124.183 11.2H128.695C129.015 11.2 129.255 11.28 129.415 11.44C129.575 11.6 129.671 11.72 129.703 11.8L132.103 16.624L134.503 11.8C134.535 11.72 134.631 11.6 134.791 11.44C134.951 11.28 135.191 11.2 135.511 11.2H140.023C140.167 11.2 140.287 11.256 140.383 11.368C140.495 11.464 140.551 11.584 140.551 11.728C140.551 11.76 140.543 11.8 140.527 11.848C140.527 11.88 140.519 11.912 140.503 11.944L135.103 22.624V27.352C135.103 27.528 135.039 27.68 134.911 27.808C134.783 27.936 134.631 28 134.455 28H129.751Z" fill="#9E5CF2"/>
<path d="M16.6032 28C16.4592 28 16.3312 27.952 16.2192 27.856C16.1232 27.744 16.0752 27.616 16.0752 27.472C16.0752 27.408 16.0832 27.352 16.0992 27.304L21.4512 11.992C21.4992 11.816 21.6112 11.64 21.7872 11.464C21.9632 11.288 22.2112 11.2 22.5312 11.2H27.7392C28.0592 11.2 28.3072 11.288 28.4832 11.464C28.6592 11.64 28.7712 11.816 28.8192 11.992L34.1712 27.304C34.1872 27.352 34.1952 27.408 34.1952 27.472C34.1952 27.616 34.1392 27.744 34.0272 27.856C33.9312 27.952 33.8112 28 33.6672 28H29.2272C28.9232 28 28.6992 27.936 28.5552 27.808C28.4272 27.664 28.3392 27.528 28.2912 27.4L27.7152 25.816H22.5552L21.9792 27.4C21.9312 27.528 21.8432 27.664 21.7152 27.808C21.5872 27.936 21.3632 28 21.0432 28H16.6032ZM23.7792 21.136H26.4912L25.1232 16.672L23.7792 21.136ZM42.7219 28.24C41.1859 28.24 39.8259 28.016 38.6419 27.568C37.4579 27.12 36.5139 26.416 35.8099 25.456C35.1219 24.496 34.7459 23.256 34.6819 21.736C34.6659 21.08 34.6579 20.376 34.6579 19.624C34.6579 18.872 34.6659 18.152 34.6819 17.464C34.7459 15.976 35.1299 14.752 35.8339 13.792C36.5539 12.832 37.5059 12.12 38.6899 11.656C39.8899 11.192 41.2339 10.96 42.7219 10.96C43.7459 10.96 44.7299 11.08 45.6739 11.32C46.6339 11.544 47.4979 11.904 48.2659 12.4C49.0339 12.896 49.6419 13.536 50.0899 14.32C50.5539 15.088 50.7939 16.016 50.8099 17.104C50.8099 17.248 50.7539 17.376 50.6419 17.488C50.5459 17.584 50.4259 17.632 50.2819 17.632H45.3859C45.1299 17.632 44.9379 17.584 44.8099 17.488C44.6979 17.376 44.5939 17.192 44.4979 16.936C44.3219 16.424 44.0819 16.08 43.7779 15.904C43.4739 15.728 43.1139 15.64 42.6979 15.64C42.1699 15.64 41.7459 15.784 41.4259 16.072C41.1219 16.344 40.9539 16.848 40.9219 17.584C40.8739 18.896 40.8739 20.24 40.9219 21.616C40.9539 22.352 41.1219 22.864 41.4259 23.152C41.7459 23.424 42.1699 23.56 42.6979 23.56C43.1139 23.56 43.4739 23.464 43.7779 23.272C44.0979 23.08 44.3379 22.744 44.4979 22.264C44.5779 21.992 44.6819 21.808 44.8099 21.712C44.9379 21.616 45.1299 21.568 45.3859 21.568H50.2819C50.4259 21.568 50.5459 21.624 50.6419 21.736C50.7539 21.832 50.8099 21.952 50.8099 22.096C50.7939 23.184 50.5539 24.12 50.0899 24.904C49.6419 25.672 49.0339 26.304 48.2659 26.8C47.4979 27.296 46.6339 27.664 45.6739 27.904C44.7299 28.128 43.7459 28.24 42.7219 28.24ZM51.6657 28C51.5217 28 51.3937 27.952 51.2817 27.856C51.1857 27.744 51.1377 27.616 51.1377 27.472C51.1377 27.408 51.1457 27.352 51.1617 27.304L56.5137 11.992C56.5617 11.816 56.6737 11.64 56.8497 11.464C57.0257 11.288 57.2737 11.2 57.5937 11.2H62.8017C63.1217 11.2 63.3697 11.288 63.5457 11.464C63.7217 11.64 63.8337 11.816 63.8817 11.992L69.2337 27.304C69.2497 27.352 69.2577 27.408 69.2577 27.472C69.2577 27.616 69.2017 27.744 69.0897 27.856C68.9937 27.952 68.8737 28 68.7297 28H64.2897C63.9857 28 63.7617 27.936 63.6177 27.808C63.4897 27.664 63.4017 27.528 63.3537 27.4L62.7777 25.816H57.6177L57.0417 27.4C56.9937 27.528 56.9057 27.664 56.7777 27.808C56.6497 27.936 56.4257 28 56.1057 28H51.6657ZM58.8417 21.136H61.5537L60.1857 16.672L58.8417 21.136ZM71.2229 28C71.0469 28 70.8949 27.936 70.7669 27.808C70.6389 27.68 70.5749 27.528 70.5749 27.352V11.848C70.5749 11.672 70.6389 11.52 70.7669 11.392C70.8949 11.264 71.0469 11.2 71.2229 11.2H78.1349C79.6389 11.2 80.9829 11.456 82.1669 11.968C83.3509 12.464 84.2949 13.2 84.9989 14.176C85.7189 15.152 86.1029 16.36 86.1509 17.8C86.1829 18.488 86.1989 19.096 86.1989 19.624C86.1989 20.136 86.1829 20.72 86.1509 21.376C86.0869 22.88 85.7189 24.128 85.0469 25.12C84.3749 26.096 83.4549 26.824 82.2869 27.304C81.1349 27.768 79.7909 28 78.2549 28H71.2229ZM76.5749 23.32H78.1349C78.4869 23.32 78.7989 23.256 79.0709 23.128C79.3589 22.984 79.5909 22.768 79.7669 22.48C79.9429 22.192 80.0389 21.824 80.0549 21.376C80.0869 20.912 80.1029 20.496 80.1029 20.128C80.1189 19.76 80.1189 19.392 80.1029 19.024C80.1029 18.64 80.0869 18.232 80.0549 17.8C80.0229 17.128 79.8069 16.64 79.4069 16.336C79.0229 16.032 78.5589 15.88 78.0149 15.88H76.5749V23.32ZM88.9885 28C88.8125 28 88.6605 27.936 88.5325 27.808C88.4045 27.68 88.3405 27.528 88.3405 27.352V11.848C88.3405 11.672 88.4045 11.52 88.5325 11.392C88.6605 11.264 88.8125 11.2 88.9885 11.2H101.301C101.477 11.2 101.629 11.264 101.757 11.392C101.885 11.52 101.949 11.672 101.949 11.848V15.232C101.949 15.408 101.885 15.56 101.757 15.688C101.629 15.816 101.477 15.88 101.301 15.88H94.1005V17.392H100.773C100.949 17.392 101.101 17.456 101.229 17.584C101.357 17.712 101.421 17.864 101.421 18.04V21.16C101.421 21.336 101.357 21.488 101.229 21.616C101.101 21.744 100.949 21.808 100.773 21.808H94.1005V23.32H101.493C101.669 23.32 101.821 23.384 101.949 23.512C102.077 23.64 102.141 23.792 102.141 23.968V27.352C102.141 27.528 102.077 27.68 101.949 27.808C101.821 27.936 101.669 28 101.493 28H88.9885ZM104.996 28C104.82 28 104.668 27.936 104.54 27.808C104.412 27.68 104.348 27.528 104.348 27.352V11.848C104.348 11.672 104.412 11.52 104.54 11.392C104.668 11.264 104.82 11.2 104.996 11.2H108.788C109.108 11.2 109.348 11.288 109.508 11.464C109.668 11.64 109.772 11.768 109.82 11.848L113.3 17.608L116.78 11.848C116.828 11.768 116.932 11.64 117.092 11.464C117.252 11.288 117.492 11.2 117.812 11.2H121.604C121.78 11.2 121.932 11.264 122.06 11.392C122.188 11.52 122.252 11.672 122.252 11.848V27.352C122.252 27.528 122.188 27.68 122.06 27.808C121.932 27.936 121.78 28 121.604 28H117.26C117.084 28 116.932 27.936 116.804 27.808C116.676 27.68 116.612 27.528 116.612 27.352V20.776L115.028 23.368C114.948 23.496 114.836 23.632 114.692 23.776C114.564 23.904 114.38 23.968 114.14 23.968H112.46C112.22 23.968 112.028 23.904 111.884 23.776C111.756 23.632 111.652 23.496 111.572 23.368L109.988 20.776V27.352C109.988 27.528 109.924 27.68 109.796 27.808C109.668 27.936 109.516 28 109.34 28H104.996ZM129.751 28C129.575 28 129.423 27.936 129.295 27.808C129.167 27.68 129.103 27.528 129.103 27.352V22.624L123.703 11.944C123.687 11.912 123.671 11.88 123.655 11.848C123.655 11.8 123.655 11.76 123.655 11.728C123.655 11.584 123.703 11.464 123.799 11.368C123.911 11.256 124.039 11.2 124.183 11.2H128.695C129.015 11.2 129.255 11.28 129.415 11.44C129.575 11.6 129.671 11.72 129.703 11.8L132.103 16.624L134.503 11.8C134.535 11.72 134.631 11.6 134.791 11.44C134.951 11.28 135.191 11.2 135.511 11.2H140.023C140.167 11.2 140.287 11.256 140.383 11.368C140.495 11.464 140.551 11.584 140.551 11.728C140.551 11.76 140.543 11.8 140.527 11.848C140.527 11.88 140.519 11.912 140.503 11.944L135.103 22.624V27.352C135.103 27.528 135.039 27.68 134.911 27.808C134.783 27.936 134.631 28 134.455 28H129.751Z" fill="black" fill-opacity="0.2"/>
<path d="M16.6032 28C16.4592 28 16.3312 27.952 16.2192 27.856C16.1232 27.744 16.0752 27.616 16.0752 27.472C16.0752 27.408 16.0832 27.352 16.0992 27.304L21.4512 11.992C21.4992 11.816 21.6112 11.64 21.7872 11.464C21.9632 11.288 22.2112 11.2 22.5312 11.2H27.7392C28.0592 11.2 28.3072 11.288 28.4832 11.464C28.6592 11.64 28.7712 11.816 28.8192 11.992L34.1712 27.304C34.1872 27.352 34.1952 27.408 34.1952 27.472C34.1952 27.616 34.1392 27.744 34.0272 27.856C33.9312 27.952 33.8112 28 33.6672 28H29.2272C28.9232 28 28.6992 27.936 28.5552 27.808C28.4272 27.664 28.3392 27.528 28.2912 27.4L27.7152 25.816H22.5552L21.9792 27.4C21.9312 27.528 21.8432 27.664 21.7152 27.808C21.5872 27.936 21.3632 28 21.0432 28H16.6032ZM23.7792 21.136H26.4912L25.1232 16.672L23.7792 21.136ZM42.7219 28.24C41.1859 28.24 39.8259 28.016 38.6419 27.568C37.4579 27.12 36.5139 26.416 35.8099 25.456C35.1219 24.496 34.7459 23.256 34.6819 21.736C34.6659 21.08 34.6579 20.376 34.6579 19.624C34.6579 18.872 34.6659 18.152 34.6819 17.464C34.7459 15.976 35.1299 14.752 35.8339 13.792C36.5539 12.832 37.5059 12.12 38.6899 11.656C39.8899 11.192 41.2339 10.96 42.7219 10.96C43.7459 10.96 44.7299 11.08 45.6739 11.32C46.6339 11.544 47.4979 11.904 48.2659 12.4C49.0339 12.896 49.6419 13.536 50.0899 14.32C50.5539 15.088 50.7939 16.016 50.8099 17.104C50.8099 17.248 50.7539 17.376 50.6419 17.488C50.5459 17.584 50.4259 17.632 50.2819 17.632H45.3859C45.1299 17.632 44.9379 17.584 44.8099 17.488C44.6979 17.376 44.5939 17.192 44.4979 16.936C44.3219 16.424 44.0819 16.08 43.7779 15.904C43.4739 15.728 43.1139 15.64 42.6979 15.64C42.1699 15.64 41.7459 15.784 41.4259 16.072C41.1219 16.344 40.9539 16.848 40.9219 17.584C40.8739 18.896 40.8739 20.24 40.9219 21.616C40.9539 22.352 41.1219 22.864 41.4259 23.152C41.7459 23.424 42.1699 23.56 42.6979 23.56C43.1139 23.56 43.4739 23.464 43.7779 23.272C44.0979 23.08 44.3379 22.744 44.4979 22.264C44.5779 21.992 44.6819 21.808 44.8099 21.712C44.9379 21.616 45.1299 21.568 45.3859 21.568H50.2819C50.4259 21.568 50.5459 21.624 50.6419 21.736C50.7539 21.832 50.8099 21.952 50.8099 22.096C50.7939 23.184 50.5539 24.12 50.0899 24.904C49.6419 25.672 49.0339 26.304 48.2659 26.8C47.4979 27.296 46.6339 27.664 45.6739 27.904C44.7299 28.128 43.7459 28.24 42.7219 28.24ZM51.6657 28C51.5217 28 51.3937 27.952 51.2817 27.856C51.1857 27.744 51.1377 27.616 51.1377 27.472C51.1377 27.408 51.1457 27.352 51.1617 27.304L56.5137 11.992C56.5617 11.816 56.6737 11.64 56.8497 11.464C57.0257 11.288 57.2737 11.2 57.5937 11.2H62.8017C63.1217 11.2 63.3697 11.288 63.5457 11.464C63.7217 11.64 63.8337 11.816 63.8817 11.992L69.2337 27.304C69.2497 27.352 69.2577 27.408 69.2577 27.472C69.2577 27.616 69.2017 27.744 69.0897 27.856C68.9937 27.952 68.8737 28 68.7297 28H64.2897C63.9857 28 63.7617 27.936 63.6177 27.808C63.4897 27.664 63.4017 27.528 63.3537 27.4L62.7777 25.816H57.6177L57.0417 27.4C56.9937 27.528 56.9057 27.664 56.7777 27.808C56.6497 27.936 56.4257 28 56.1057 28H51.6657ZM58.8417 21.136H61.5537L60.1857 16.672L58.8417 21.136ZM71.2229 28C71.0469 28 70.8949 27.936 70.7669 27.808C70.6389 27.68 70.5749 27.528 70.5749 27.352V11.848C70.5749 11.672 70.6389 11.52 70.7669 11.392C70.8949 11.264 71.0469 11.2 71.2229 11.2H78.1349C79.6389 11.2 80.9829 11.456 82.1669 11.968C83.3509 12.464 84.2949 13.2 84.9989 14.176C85.7189 15.152 86.1029 16.36 86.1509 17.8C86.1829 18.488 86.1989 19.096 86.1989 19.624C86.1989 20.136 86.1829 20.72 86.1509 21.376C86.0869 22.88 85.7189 24.128 85.0469 25.12C84.3749 26.096 83.4549 26.824 82.2869 27.304C81.1349 27.768 79.7909 28 78.2549 28H71.2229ZM76.5749 23.32H78.1349C78.4869 23.32 78.7989 23.256 79.0709 23.128C79.3589 22.984 79.5909 22.768 79.7669 22.48C79.9429 22.192 80.0389 21.824 80.0549 21.376C80.0869 20.912 80.1029 20.496 80.1029 20.128C80.1189 19.76 80.1189 19.392 80.1029 19.024C80.1029 18.64 80.0869 18.232 80.0549 17.8C80.0229 17.128 79.8069 16.64 79.4069 16.336C79.0229 16.032 78.5589 15.88 78.0149 15.88H76.5749V23.32ZM88.9885 28C88.8125 28 88.6605 27.936 88.5325 27.808C88.4045 27.68 88.3405 27.528 88.3405 27.352V11.848C88.3405 11.672 88.4045 11.52 88.5325 11.392C88.6605 11.264 88.8125 11.2 88.9885 11.2H101.301C101.477 11.2 101.629 11.264 101.757 11.392C101.885 11.52 101.949 11.672 101.949 11.848V15.232C101.949 15.408 101.885 15.56 101.757 15.688C101.629 15.816 101.477 15.88 101.301 15.88H94.1005V17.392H100.773C100.949 17.392 101.101 17.456 101.229 17.584C101.357 17.712 101.421 17.864 101.421 18.04V21.16C101.421 21.336 101.357 21.488 101.229 21.616C101.101 21.744 100.949 21.808 100.773 21.808H94.1005V23.32H101.493C101.669 23.32 101.821 23.384 101.949 23.512C102.077 23.64 102.141 23.792 102.141 23.968V27.352C102.141 27.528 102.077 27.68 101.949 27.808C101.821 27.936 101.669 28 101.493 28H88.9885ZM104.996 28C104.82 28 104.668 27.936 104.54 27.808C104.412 27.68 104.348 27.528 104.348 27.352V11.848C104.348 11.672 104.412 11.52 104.54 11.392C104.668 11.264 104.82 11.2 104.996 11.2H108.788C109.108 11.2 109.348 11.288 109.508 11.464C109.668 11.64 109.772 11.768 109.82 11.848L113.3 17.608L116.78 11.848C116.828 11.768 116.932 11.64 117.092 11.464C117.252 11.288 117.492 11.2 117.812 11.2H121.604C121.78 11.2 121.932 11.264 122.06 11.392C122.188 11.52 122.252 11.672 122.252 11.848V27.352C122.252 27.528 122.188 27.68 122.06 27.808C121.932 27.936 121.78 28 121.604 28H117.26C117.084 28 116.932 27.936 116.804 27.808C116.676 27.68 116.612 27.528 116.612 27.352V20.776L115.028 23.368C114.948 23.496 114.836 23.632 114.692 23.776C114.564 23.904 114.38 23.968 114.14 23.968H112.46C112.22 23.968 112.028 23.904 111.884 23.776C111.756 23.632 111.652 23.496 111.572 23.368L109.988 20.776V27.352C109.988 27.528 109.924 27.68 109.796 27.808C109.668 27.936 109.516 28 109.34 28H104.996ZM129.751 28C129.575 28 129.423 27.936 129.295 27.808C129.167 27.68 129.103 27.528 129.103 27.352V22.624L123.703 11.944C123.687 11.912 123.671 11.88 123.655 11.848C123.655 11.8 123.655 11.76 123.655 11.728C123.655 11.584 123.703 11.464 123.799 11.368C123.911 11.256 124.039 11.2 124.183 11.2H128.695C129.015 11.2 129.255 11.28 129.415 11.44C129.575 11.6 129.671 11.72 129.703 11.8L132.103 16.624L134.503 11.8C134.535 11.72 134.631 11.6 134.791 11.44C134.951 11.28 135.191 11.2 135.511 11.2H140.023C140.167 11.2 140.287 11.256 140.383 11.368C140.495 11.464 140.551 11.584 140.551 11.728C140.551 11.76 140.543 11.8 140.527 11.848C140.527 11.88 140.519 11.912 140.503 11.944L135.103 22.624V27.352C135.103 27.528 135.039 27.68 134.911 27.808C134.783 27.936 134.631 28 134.455 28H129.751Z" fill="black" fill-opacity="0.2"/>
<path d="M191.059 13.3366C185.501 12.9416 182.259 14.7511 180.541 16.276C178.814 14.7328 175.545 12.9324 169.932 13.3458C169.804 13.355 169.675 13.3642 169.556 13.3642L169.964 10.157C169.995 9.90885 170.161 9.69312 170.393 9.60023C177.074 6.92833 183.687 6.87917 190.232 9.63353C190.458 9.72876 190.619 9.94148 190.65 10.1849L191.059 13.3366Z" fill="#9E5CF2"/>
<path d="M191.059 13.3366C185.501 12.9416 182.259 14.7511 180.541 16.276C178.814 14.7328 175.545 12.9324 169.932 13.3458C169.804 13.355 169.675 13.3642 169.556 13.3642L169.964 10.157C169.995 9.90885 170.161 9.69312 170.393 9.60023C177.074 6.92833 183.687 6.87917 190.232 9.63353C190.458 9.72876 190.619 9.94148 190.65 10.1849L191.059 13.3366Z" fill="black" fill-opacity="0.2"/>
<path d="M191.059 13.3366C185.501 12.9416 182.259 14.7511 180.541 16.276C178.814 14.7328 175.545 12.9324 169.932 13.3458C169.804 13.355 169.675 13.3642 169.556 13.3642L169.964 10.157C169.995 9.90885 170.161 9.69312 170.393 9.60023C177.074 6.92833 183.687 6.87917 190.232 9.63353C190.458 9.72876 190.619 9.94148 190.65 10.1849L191.059 13.3366Z" fill="black" fill-opacity="0.2"/>
<path d="M197.745 21.6406C195.816 19.0871 192.748 17.4338 189.304 17.4338C185.666 17.4338 182.451 19.28 180.541 22.0724C178.63 19.28 175.415 17.4338 171.778 17.4338C168.334 17.4338 165.266 19.0871 163.328 21.6406C160.315 18.3798 160.994 14.5311 161.591 12.6941C161.711 12.3175 162.207 12.2716 162.409 12.6115C163.043 13.6861 164.659 15.2292 168.719 15.2384C169.142 15.2384 169.592 15.22 170.069 15.1834C178.226 14.5679 180.541 19.0871 180.541 19.0871C180.541 19.0871 182.856 14.5679 191.012 15.1834C191.49 15.22 191.94 15.2384 192.353 15.2384C196.413 15.2292 198.03 13.6861 198.664 12.6115C198.866 12.2716 199.362 12.3175 199.481 12.6941C200.078 14.5311 200.767 18.389 197.745 21.6406Z" fill="#9E5CF2"/>
<path d="M197.745 21.6406C195.816 19.0871 192.748 17.4338 189.304 17.4338C185.666 17.4338 182.451 19.28 180.541 22.0724C178.63 19.28 175.415 17.4338 171.778 17.4338C168.334 17.4338 165.266 19.0871 163.328 21.6406C160.315 18.3798 160.994 14.5311 161.591 12.6941C161.711 12.3175 162.207 12.2716 162.409 12.6115C163.043 13.6861 164.659 15.2292 168.719 15.2384C169.142 15.2384 169.592 15.22 170.069 15.1834C178.226 14.5679 180.541 19.0871 180.541 19.0871C180.541 19.0871 182.856 14.5679 191.012 15.1834C191.49 15.22 191.94 15.2384 192.353 15.2384C196.413 15.2292 198.03 13.6861 198.664 12.6115C198.866 12.2716 199.362 12.3175 199.481 12.6941C200.078 14.5311 200.767 18.389 197.745 21.6406Z" fill="black" fill-opacity="0.2"/>
<path d="M197.745 21.6406C195.816 19.0871 192.748 17.4338 189.304 17.4338C185.666 17.4338 182.451 19.28 180.541 22.0724C178.63 19.28 175.415 17.4338 171.778 17.4338C168.334 17.4338 165.266 19.0871 163.328 21.6406C160.315 18.3798 160.994 14.5311 161.591 12.6941C161.711 12.3175 162.207 12.2716 162.409 12.6115C163.043 13.6861 164.659 15.2292 168.719 15.2384C169.142 15.2384 169.592 15.22 170.069 15.1834C178.226 14.5679 180.541 19.0871 180.541 19.0871C180.541 19.0871 182.856 14.5679 191.012 15.1834C191.49 15.22 191.94 15.2384 192.353 15.2384C196.413 15.2292 198.03 13.6861 198.664 12.6115C198.866 12.2716 199.362 12.3175 199.481 12.6941C200.078 14.5311 200.767 18.389 197.745 21.6406Z" fill="black" fill-opacity="0.2"/>
<path d="M183.232 36.714C182.938 37.7427 182.276 38.9368 180.834 39.9105C180.66 40.0298 180.421 40.0298 180.246 39.9105C178.804 38.9368 178.143 37.7427 177.849 36.714C178.896 35.9792 179.815 35.0514 180.54 33.9951C181.266 35.0515 182.185 35.9792 183.232 36.714Z" fill="#9E5CF2"/>
<path d="M183.232 36.714C182.938 37.7427 182.276 38.9368 180.834 39.9105C180.66 40.0298 180.421 40.0298 180.246 39.9105C178.804 38.9368 178.143 37.7427 177.849 36.714C178.896 35.9792 179.815 35.0514 180.54 33.9951C181.266 35.0515 182.185 35.9792 183.232 36.714Z" fill="black" fill-opacity="0.2"/>
<path d="M183.232 36.714C182.938 37.7427 182.276 38.9368 180.834 39.9105C180.66 40.0298 180.421 40.0298 180.246 39.9105C178.804 38.9368 178.143 37.7427 177.849 36.714C178.896 35.9792 179.815 35.0514 180.54 33.9951C181.266 35.0515 182.185 35.9792 183.232 36.714Z" fill="black" fill-opacity="0.2"/>
<path d="M189.304 19.2701C184.463 19.2701 180.541 23.1922 180.541 28.0329C180.541 32.8736 184.463 36.7956 189.304 36.7956C194.144 36.7956 198.066 32.8736 198.066 28.0329C198.066 23.1922 194.144 19.2701 189.304 19.2701ZM189.304 33.8931C186.07 33.8931 183.444 31.2661 183.444 28.0329C183.444 24.7996 186.071 22.1726 189.304 22.1726C192.528 22.1726 195.164 24.7996 195.164 28.0329C195.164 31.2661 192.528 33.8931 189.304 33.8931Z" fill="#9E5CF2"/>
<path d="M189.304 19.2701C184.463 19.2701 180.541 23.1922 180.541 28.0329C180.541 32.8736 184.463 36.7956 189.304 36.7956C194.144 36.7956 198.066 32.8736 198.066 28.0329C198.066 23.1922 194.144 19.2701 189.304 19.2701ZM189.304 33.8931C186.07 33.8931 183.444 31.2661 183.444 28.0329C183.444 24.7996 186.071 22.1726 189.304 22.1726C192.528 22.1726 195.164 24.7996 195.164 28.0329C195.164 31.2661 192.528 33.8931 189.304 33.8931Z" fill="black" fill-opacity="0.2"/>
<path d="M189.304 19.2701C184.463 19.2701 180.541 23.1922 180.541 28.0329C180.541 32.8736 184.463 36.7956 189.304 36.7956C194.144 36.7956 198.066 32.8736 198.066 28.0329C198.066 23.1922 194.144 19.2701 189.304 19.2701ZM189.304 33.8931C186.07 33.8931 183.444 31.2661 183.444 28.0329C183.444 24.7996 186.071 22.1726 189.304 22.1726C192.528 22.1726 195.164 24.7996 195.164 28.0329C195.164 31.2661 192.528 33.8931 189.304 33.8931Z" fill="black" fill-opacity="0.2"/>
<path d="M198.627 7.12776L196.248 7.91769V11.2245C196.248 11.7388 195.835 12.143 195.329 12.143C194.824 12.143 194.411 11.7388 194.411 11.2245V8.52396L192.262 9.24033C192.014 8.66176 191.536 8.18411 190.948 7.93609C187.485 6.48473 183.93 5.74077 180.376 5.74077C176.867 5.74077 173.275 6.46645 169.711 7.89931C169.133 8.12894 168.673 8.56063 168.398 9.10264L162.446 7.12778C161.849 6.93492 161.849 6.04386 162.446 5.851L179.678 0.137746C180.238 -0.0459152 180.835 -0.0459152 181.395 0.137746L198.627 5.851C199.224 6.04384 199.224 6.9349 198.627 7.12776Z" fill="#9E5CF2"/>
<path d="M198.627 7.12776L196.248 7.91769V11.2245C196.248 11.7388 195.835 12.143 195.329 12.143C194.824 12.143 194.411 11.7388 194.411 11.2245V8.52396L192.262 9.24033C192.014 8.66176 191.536 8.18411 190.948 7.93609C187.485 6.48473 183.93 5.74077 180.376 5.74077C176.867 5.74077 173.275 6.46645 169.711 7.89931C169.133 8.12894 168.673 8.56063 168.398 9.10264L162.446 7.12778C161.849 6.93492 161.849 6.04386 162.446 5.851L179.678 0.137746C180.238 -0.0459152 180.835 -0.0459152 181.395 0.137746L198.627 5.851C199.224 6.04384 199.224 6.9349 198.627 7.12776Z" fill="black" fill-opacity="0.2"/>
<path d="M198.627 7.12776L196.248 7.91769V11.2245C196.248 11.7388 195.835 12.143 195.329 12.143C194.824 12.143 194.411 11.7388 194.411 11.2245V8.52396L192.262 9.24033C192.014 8.66176 191.536 8.18411 190.948 7.93609C187.485 6.48473 183.93 5.74077 180.376 5.74077C176.867 5.74077 173.275 6.46645 169.711 7.89931C169.133 8.12894 168.673 8.56063 168.398 9.10264L162.446 7.12778C161.849 6.93492 161.849 6.04386 162.446 5.851L179.678 0.137746C180.238 -0.0459152 180.835 -0.0459152 181.395 0.137746L198.627 5.851C199.224 6.04384 199.224 6.9349 198.627 7.12776Z" fill="black" fill-opacity="0.2"/>
<path d="M189.304 24.0109C187.081 24.0109 185.281 25.8112 185.281 28.034C185.281 30.2477 187.081 32.0572 189.304 32.0572C191.518 32.0572 193.327 30.2477 193.327 28.034C193.327 25.8112 191.518 24.0109 189.304 24.0109ZM188.129 28.04C187.611 28.04 187.188 27.6177 187.188 27.0989C187.188 27.0755 187.189 27.0522 187.191 27.0293C187.226 26.5428 187.634 26.1578 188.129 26.1578C188.648 26.1578 189.07 26.5801 189.07 27.0989C189.07 27.6092 188.639 28.04 188.129 28.04Z" fill="#9E5CF2"/>
<path d="M189.304 24.0109C187.081 24.0109 185.281 25.8112 185.281 28.034C185.281 30.2477 187.081 32.0572 189.304 32.0572C191.518 32.0572 193.327 30.2477 193.327 28.034C193.327 25.8112 191.518 24.0109 189.304 24.0109ZM188.129 28.04C187.611 28.04 187.188 27.6177 187.188 27.0989C187.188 27.0755 187.189 27.0522 187.191 27.0293C187.226 26.5428 187.634 26.1578 188.129 26.1578C188.648 26.1578 189.07 26.5801 189.07 27.0989C189.07 27.6092 188.639 28.04 188.129 28.04Z" fill="black" fill-opacity="0.2"/>
<path d="M189.304 24.0109C187.081 24.0109 185.281 25.8112 185.281 28.034C185.281 30.2477 187.081 32.0572 189.304 32.0572C191.518 32.0572 193.327 30.2477 193.327 28.034C193.327 25.8112 191.518 24.0109 189.304 24.0109ZM188.129 28.04C187.611 28.04 187.188 27.6177 187.188 27.0989C187.188 27.0755 187.189 27.0522 187.191 27.0293C187.226 26.5428 187.634 26.1578 188.129 26.1578C188.648 26.1578 189.07 26.5801 189.07 27.0989C189.07 27.6092 188.639 28.04 188.129 28.04Z" fill="black" fill-opacity="0.2"/>
<path d="M171.779 24.0107C169.557 24.0107 167.756 25.811 167.756 28.0339C167.756 30.2476 169.557 32.0571 171.779 32.0571C173.993 32.0571 175.803 30.2476 175.803 28.0339C175.803 25.811 173.993 24.0107 171.779 24.0107ZM170.605 28.0399C170.086 28.0399 169.664 27.6176 169.664 27.0988C169.664 27.0754 169.664 27.052 169.666 27.0292C169.702 26.5427 170.109 26.1577 170.605 26.1577C171.124 26.1577 171.546 26.58 171.546 27.0988C171.546 27.6091 171.115 28.0399 170.605 28.0399Z" fill="#9E5CF2"/>
<path d="M171.779 24.0107C169.557 24.0107 167.756 25.811 167.756 28.0339C167.756 30.2476 169.557 32.0571 171.779 32.0571C173.993 32.0571 175.803 30.2476 175.803 28.0339C175.803 25.811 173.993 24.0107 171.779 24.0107ZM170.605 28.0399C170.086 28.0399 169.664 27.6176 169.664 27.0988C169.664 27.0754 169.664 27.052 169.666 27.0292C169.702 26.5427 170.109 26.1577 170.605 26.1577C171.124 26.1577 171.546 26.58 171.546 27.0988C171.546 27.6091 171.115 28.0399 170.605 28.0399Z" fill="black" fill-opacity="0.2"/>
<path d="M171.779 24.0107C169.557 24.0107 167.756 25.811 167.756 28.0339C167.756 30.2476 169.557 32.0571 171.779 32.0571C173.993 32.0571 175.803 30.2476 175.803 28.0339C175.803 25.811 173.993 24.0107 171.779 24.0107ZM170.605 28.0399C170.086 28.0399 169.664 27.6176 169.664 27.0988C169.664 27.0754 169.664 27.052 169.666 27.0292C169.702 26.5427 170.109 26.1577 170.605 26.1577C171.124 26.1577 171.546 26.58 171.546 27.0988C171.546 27.6091 171.115 28.0399 170.605 28.0399Z" fill="black" fill-opacity="0.2"/>
<path d="M171.779 19.2701C166.939 19.2701 163.017 23.1922 163.017 28.0329C163.017 32.8736 166.939 36.7956 171.779 36.7956C176.62 36.7956 180.542 32.8736 180.542 28.0329C180.542 23.1922 176.62 19.2701 171.779 19.2701ZM171.779 33.8931C168.546 33.8931 165.919 31.2661 165.919 28.0329C165.919 24.7996 168.546 22.1726 171.779 22.1726C175.003 22.1726 177.64 24.7996 177.64 28.0329C177.64 31.2661 175.003 33.8931 171.779 33.8931Z" fill="#9E5CF2"/>
<path d="M171.779 19.2701C166.939 19.2701 163.017 23.1922 163.017 28.0329C163.017 32.8736 166.939 36.7956 171.779 36.7956C176.62 36.7956 180.542 32.8736 180.542 28.0329C180.542 23.1922 176.62 19.2701 171.779 19.2701ZM171.779 33.8931C168.546 33.8931 165.919 31.2661 165.919 28.0329C165.919 24.7996 168.546 22.1726 171.779 22.1726C175.003 22.1726 177.64 24.7996 177.64 28.0329C177.64 31.2661 175.003 33.8931 171.779 33.8931Z" fill="black" fill-opacity="0.2"/>
<path d="M171.779 19.2701C166.939 19.2701 163.017 23.1922 163.017 28.0329C163.017 32.8736 166.939 36.7956 171.779 36.7956C176.62 36.7956 180.542 32.8736 180.542 28.0329C180.542 23.1922 176.62 19.2701 171.779 19.2701ZM171.779 33.8931C168.546 33.8931 165.919 31.2661 165.919 28.0329C165.919 24.7996 168.546 22.1726 171.779 22.1726C175.003 22.1726 177.64 24.7996 177.64 28.0329C177.64 31.2661 175.003 33.8931 171.779 33.8931Z" fill="black" fill-opacity="0.2"/>
</svg>
