<svg width="20" height="20" viewBox="0 0 20 20" fill="none" xmlns="http://www.w3.org/2000/svg">
<path d="M5.5 3.03125C7.75 3.0625 9.21875 4.0625 9.28125 4.09375C9.40625 4.1875 9.5 4.34375 9.5 4.53125V16.5312C9.5 16.6562 9.375 17 9 17C8.875 17 8.78125 16.9688 8.6875 16.9062C8.5625 16.8125 5.625 14.625 1.6875 16.4688C1.34375 16.625 1 16.375 1 16.0312V4.84375C1 4.4375 1.21875 4.09375 1.5625 3.9375C2.96875 3.3125 4.3125 3 5.5 3.03125ZM18.4062 3.9375C18.75 4.09375 18.9688 4.4375 19 4.84375V16.0312C19 16.375 18.625 16.625 18.2812 16.4688C14.3438 14.625 11.4062 16.8125 11.2812 16.9062C11.1875 16.9688 11.0938 17 11 17C10.5938 17 10.5 16.6562 10.5 16.5V4.53125C10.5 4.34375 10.5625 4.1875 10.6875 4.09375C10.7812 4.0625 12.2188 3.0625 14.4688 3.03125C15.625 3 17 3.3125 18.4062 3.9375Z" fill="#7879F1"/>
</svg>
