<svg width="20" height="20" viewBox="0 0 20 20" fill="none" xmlns="http://www.w3.org/2000/svg">
<path d="M7 15C7.53125 15 8 15.4688 8 16C8 16.5625 7.53125 17 7 17H5C3.3125 17 2 15.6875 2 14V6C2 4.34375 3.3125 3 5 3H7C7.53125 3 8 3.46875 8 4C8 4.5625 7.53125 5 7 5H5C4.4375 5 4 5.46875 4 6V14C4 14.5625 4.4375 15 5 15H7ZM17.6875 9.3125C18.0938 9.6875 18.0938 10.3438 17.6875 10.7188L13.6875 14.7188C13.3125 15.125 12.6562 15.125 12.2812 14.7188C11.875 14.3438 11.875 13.6875 12.2812 13.3125L14.5625 11H8C7.4375 11 7 10.5625 7 10C7 9.46875 7.4375 9 8 9H14.5625L12.2812 6.71875C11.875 6.34375 11.875 5.6875 12.2812 5.3125C12.6562 4.90625 13.3125 4.90625 13.6875 5.3125L17.6875 9.3125Z" fill="#828282"/>
</svg>
