<svg width="20" height="20" viewBox="0 0 20 20" fill="none" xmlns="http://www.w3.org/2000/svg">
<path d="M17.4688 7.21875C17.5938 7.5 17.5 7.78125 17.2812 8L15.9375 9.21875C15.9688 9.46875 16 9.75 16 10C16 10.2812 15.9688 10.5625 15.9375 10.8125L17.2812 12.0312C17.5 12.25 17.5938 12.5312 17.4688 12.8125C17.3438 13.1875 17.1875 13.5312 17 13.875L16.8438 14.125C16.625 14.4688 16.4062 14.8125 16.1562 15.125C15.9688 15.3438 15.6562 15.4062 15.375 15.3125L13.6562 14.7812C13.2188 15.0938 12.75 15.3438 12.2812 15.5625L11.875 17.3438C11.8125 17.625 11.5938 17.8438 11.3125 17.9062C10.875 17.9688 10.4375 18 9.96875 18C9.53125 18 9.09375 17.9688 8.65625 17.9062C8.375 17.8438 8.15625 17.625 8.09375 17.3438L7.6875 15.5625C7.21875 15.3438 6.75 15.0938 6.3125 14.7812L4.59375 15.3125C4.3125 15.4062 4 15.3438 3.8125 15.125C3.5625 14.8125 3.34375 14.4688 3.125 14.125L2.96875 13.875C2.78125 13.5312 2.625 13.1875 2.5 12.8125C2.375 12.5312 2.46875 12.25 2.6875 12.0312L4.03125 10.8125C4 10.5625 4 10.2812 4 10C4 9.75 4 9.46875 4.03125 9.21875L2.6875 8C2.46875 7.78125 2.375 7.5 2.5 7.21875C2.625 6.84375 2.78125 6.5 2.96875 6.15625L3.125 5.90625C3.34375 5.5625 3.5625 5.21875 3.8125 4.90625C4 4.6875 4.3125 4.625 4.59375 4.71875L6.3125 5.25C6.75 4.9375 7.21875 4.65625 7.6875 4.46875L8.09375 2.6875C8.15625 2.40625 8.375 2.1875 8.65625 2.125C9.09375 2.0625 9.53125 2 10 2C10.4375 2 10.875 2.0625 11.3125 2.125C11.5938 2.1875 11.8125 2.40625 11.875 2.6875L12.2812 4.46875C12.75 4.65625 13.2188 4.9375 13.6562 5.25L15.375 4.71875C15.6562 4.625 15.9688 4.6875 16.1562 4.90625C16.4062 5.21875 16.625 5.5625 16.8438 5.90625L17 6.15625C17.1875 6.5 17.3438 6.84375 17.4688 7.21875ZM10 12.5C11.375 12.5 12.5 11.4062 12.5 10C12.5 8.625 11.375 7.5 10 7.5C8.59375 7.5 7.5 8.625 7.5 10C7.5 11.4062 8.59375 12.5 10 12.5Z" fill="#828282"/>
</svg>
