<svg width="93" height="94" viewBox="0 0 93 94" fill="none" xmlns="http://www.w3.org/2000/svg">
<g clip-path="url(#clip0_1048_1915)">
<path d="M4.06692 53.3379C13.6273 66.6332 31.7935 71.4598 47.4864 70.0261C55.2248 69.3232 63.2423 66.3274 67.1975 59.1889C68.8905 56.0883 69.701 52.447 68.8172 48.9667C68.2915 46.8529 67.0793 44.53 64.758 44.0622C61.2243 43.3556 60.2677 47.3221 62.1323 49.6819C65.614 54.0374 72.7143 49.7518 75.8998 47.2031C79.6325 44.2143 82.4882 40.3348 85.0274 36.3159C85.7465 35.1746 87.4211 36.4642 86.6933 37.5987C83.6388 42.395 80.0361 47.0191 75.2398 50.1891C71.7635 52.4931 67.0255 54.5409 62.9021 52.6785C59.903 51.3137 58.0354 47.2077 59.8264 44.1965C61.6933 41.0144 66.1134 41.5353 68.4177 43.8656C74.8833 50.3453 69.7447 61.4562 63.8458 66.2294C55.6387 72.8723 43.4249 72.9005 33.5057 71.3473C21.6883 69.4716 10.1859 64.0385 3.29741 53.9402C2.97887 53.4518 3.70308 52.8632 4.0555 53.3708L4.06692 53.3379Z" fill="#FFD5D5"/>
<path d="M75.8825 38.8811C77.0943 40.7174 82.8167 36.6697 83.8151 36.0769C84.6637 35.5703 85.6658 34.9456 86.6047 35.7381C87.609 36.581 87.1267 38.4882 87.058 39.5607C86.8877 42.2085 86.8077 44.8562 86.5167 47.4804C86.3771 48.7622 84.5445 48.4626 84.569 47.231C84.6196 45.0816 84.811 42.9295 84.9528 40.7879C84.9853 40.3127 85.4612 37.8726 84.9623 37.6273C84.3951 37.937 83.8531 38.2908 83.3414 38.6855C81.3421 39.8204 77.5281 41.5795 75.2653 40.3231C75.1242 40.2588 75.0063 40.1524 74.9278 40.0186C74.8494 39.8849 74.8141 39.7301 74.8267 39.5755L74.8575 39.1477C74.8653 39.0326 74.909 38.9229 74.9825 38.834C75.056 38.7451 75.1556 38.6815 75.2671 38.6522C75.3787 38.623 75.4967 38.6296 75.6043 38.671C75.712 38.7124 75.8039 38.7866 75.8671 38.8831L75.8825 38.8811Z" fill="#FFD5D5"/>
</g>
<defs>
<clipPath id="clip0_1048_1915">
<rect width="64.871" height="67.1442" fill="white" transform="matrix(0.79229 0.610145 0.610145 -0.79229 0 53.7837)"/>
</clipPath>
</defs>
</svg>
