<svg width="86" height="59" viewBox="0 0 86 59" fill="none" xmlns="http://www.w3.org/2000/svg">
<g clip-path="url(#clip0_1048_1897)">
<path d="M10.9553 2.5102C18.6876 2.3084 26.9332 3.846 32.7751 9.27613C37.5418 13.7059 40.12 20.4643 38.4 26.8349L37.1401 25.7319C41.3324 24.1623 45.8825 23.7854 50.2829 24.6433C54.6834 25.5012 58.7612 27.5601 62.0616 30.5905C65.1088 33.4861 67.3627 37.11 68.6082 41.1164C70.1725 46.036 69.515 51.0511 69.3641 56.106C69.3336 57.3432 67.4071 57.2306 67.4438 55.9955C67.5701 51.5253 68.195 47.0583 67.0575 42.6631C66.0524 38.8529 64.0657 35.3687 61.2947 32.5561C55.2741 26.4528 45.9616 24.5652 37.9364 27.3819C37.776 27.4544 37.5978 27.4791 37.4234 27.4531C37.249 27.427 37.0857 27.3512 36.9533 27.2349C36.8208 27.1186 36.7248 26.9667 36.6768 26.7974C36.6288 26.6282 36.6308 26.4488 36.6827 26.281C38.333 20.3233 35.5847 13.9716 31.0766 9.97589C25.6245 5.13966 17.9739 3.66472 10.898 3.5612C10.2169 3.55152 10.2885 2.53941 10.9512 2.52246L10.9553 2.5102Z" fill="#C6E9DD"/>
<path d="M66.9349 55.5117C63.7258 53.116 60.9452 49.9095 58.1258 47.0648C57.3378 46.2695 58.5008 45.0022 59.4057 45.6115C63.0776 48.1078 66.3102 51.1929 68.9719 54.7411L67.6322 54.6543L72.0259 50.3572C73.3366 49.0778 74.6308 47.3976 76.2534 46.5361C76.4141 46.4639 76.5939 46.445 76.7663 46.4823C76.9388 46.5195 77.0949 46.6109 77.2116 46.7431C77.3283 46.8752 77.3995 47.041 77.4146 47.2163C77.4298 47.3915 77.3882 47.5668 77.2959 47.7164C76.3935 49.3095 74.6376 50.5695 73.3228 51.8406L68.9046 56.1091C68.7139 56.2704 68.4676 56.3514 68.2177 56.3352C67.9679 56.3191 67.7338 56.2069 67.5649 56.0223C65.0069 52.5999 61.8926 49.6276 58.3515 47.2289L59.6314 45.7756C62.338 48.6303 65.416 51.4797 67.6692 54.7076C67.9873 55.1684 67.4951 55.9035 66.9636 55.5077L66.9349 55.5117Z" fill="#C6E9DD"/>
<path d="M58.5954 45.9472C61.8547 45.8603 65.1146 45.7645 68.3753 45.6599L73.0979 45.4944C74.5976 45.4302 76.2204 45.1209 77.6791 45.5066C77.8128 45.5549 77.9296 45.6408 78.0153 45.7539C78.101 45.867 78.1519 46.0024 78.162 46.1437C78.172 46.2849 78.1406 46.4259 78.0717 46.5496C78.0028 46.6732 77.8993 46.7741 77.7737 46.8401C76.467 47.3301 75.0247 47.2022 73.6296 47.24C71.9597 47.2813 70.2795 47.3124 68.6013 47.2964C65.2449 47.2645 61.8953 47.103 58.5525 46.8121C58.44 46.8026 58.3356 46.75 58.2612 46.6652C58.1868 46.5804 58.1484 46.4703 58.154 46.3579C58.1595 46.2456 58.2087 46.14 58.2911 46.0633C58.3735 45.9866 58.4826 45.945 58.5954 45.9472Z" fill="#C6E9DD"/>
</g>
<defs>
<clipPath id="clip0_1048_1897">
<rect width="78" height="36" fill="white" transform="matrix(0.948366 0.317179 0.317179 -0.948366 0 34.1411)"/>
</clipPath>
</defs>
</svg>
