<svg width="33" height="25" viewBox="0 0 33 25" fill="none" xmlns="http://www.w3.org/2000/svg">
<path id="icon" d="M22.2943 5.70099L22.2943 5.70101L28.613 11.9678L28.792 12.1453L28.6131 12.3228L22.2943 18.5937L22.2874 18.6006L22.2873 18.6005C22.1458 18.7303 22.0324 18.8869 21.9536 19.0609C21.8748 19.235 21.8323 19.4229 21.8285 19.6135C21.8248 19.8041 21.8598 19.9935 21.9317 20.1704C22.0035 20.3474 22.1107 20.5083 22.2469 20.6434C22.3831 20.7785 22.5455 20.8851 22.7244 20.9567C22.9034 21.0282 23.0951 21.0633 23.2882 21.0596C23.4812 21.0559 23.6715 21.0137 23.8475 20.9354C24.0236 20.8571 24.1817 20.7444 24.3126 20.6043L24.3192 20.5972L24.3193 20.5973L31.8317 13.1477C32.0998 12.8816 32.25 12.5212 32.25 12.1458C32.25 11.7706 32.0998 11.4103 31.8318 11.1441L22.2943 5.70099ZM22.2943 5.70099L22.2916 5.69844C22.0872 5.50155 21.9469 5.24887 21.8884 4.97288C21.8298 4.6969 21.8557 4.40987 21.9627 4.14844C22.0697 3.88699 22.2531 3.66283 22.4897 3.5049C22.7263 3.34699 23.0053 3.26257 23.2908 3.26269C23.4824 3.26316 23.6718 3.30166 23.8479 3.37587C24.0242 3.45011 24.1835 3.55855 24.3165 3.69468L24.3165 3.6947L24.3193 3.69749L31.8317 11.144L22.2943 5.70099ZM19.0084 0.962657L19.0092 0.962609L19.1516 0.961703C19.1517 0.961707 19.1518 0.961712 19.1519 0.961717C19.3678 0.971609 19.5785 1.02972 19.7683 1.13162C19.9582 1.23356 20.1223 1.37664 20.2483 1.55004C20.3743 1.72343 20.4591 1.92268 20.4965 2.13289C20.5339 2.34309 20.5229 2.55894 20.4643 2.76437L20.4634 2.7677L15.0144 22.9277L15.0142 22.9277L15.0121 22.9368C14.9693 23.1225 14.8891 23.2978 14.7763 23.4523C14.6635 23.6068 14.5204 23.7372 14.3553 23.8358L14.4835 24.0505L14.3553 23.8358C14.1903 23.9344 14.0068 23.999 13.8158 24.0257C13.6248 24.0524 13.4304 24.0406 13.2441 23.9911C13.0578 23.9416 12.8837 23.8553 12.732 23.7376C12.5804 23.62 12.4544 23.4732 12.3614 23.3064C12.2684 23.1395 12.2104 22.9559 12.1906 22.7664C12.1709 22.577 12.1899 22.3855 12.2465 22.2035L12.2467 22.2035L12.2492 22.1944L17.694 2.03547L17.694 2.03548L17.6949 2.03204C17.7696 1.73872 17.9372 1.47648 18.1735 1.28392C18.4098 1.09133 18.7024 0.978628 19.0084 0.962657ZM9.66435 3.26257L9.6647 3.26256C9.95413 3.25336 10.2394 3.33126 10.4831 3.48578C10.7267 3.64028 10.9172 3.86407 11.0298 4.12745C11.1424 4.39081 11.1719 4.68166 11.1146 4.96186C11.0574 5.24208 10.9159 5.49886 10.7085 5.69831L10.7085 5.69829L10.7058 5.70095L4.38284 11.9678L4.20375 12.1453L4.38279 12.3228L10.7056 18.5937C10.8385 18.7257 10.9439 18.8822 11.0156 19.0543C11.0874 19.2265 11.1242 19.4108 11.1241 19.597C11.1239 19.7831 11.0868 19.9674 11.0148 20.1394C10.9428 20.3115 10.8373 20.4679 10.7042 20.5997C10.5711 20.7315 10.4129 20.8361 10.2388 20.9074L10.3336 21.1387L10.2388 20.9074C10.0647 20.9787 9.87803 21.0154 9.68951 21.0152C9.50099 21.015 9.31441 20.978 9.14044 20.9063C8.96646 20.8346 8.80857 20.7296 8.67572 20.5976L8.67556 20.5974L1.1683 13.1477C0.900209 12.8816 0.75 12.5212 0.75 12.1458C0.75 11.7706 0.900178 11.4102 1.16822 11.144C1.16824 11.144 1.16827 11.144 1.1683 11.144L8.67552 3.69743L8.67554 3.69746L8.67837 3.69456C8.93747 3.42912 9.29112 3.27392 9.66435 3.26257Z" fill="#009E68" stroke="#EBFAF5" stroke-width="0.5"/>
</svg>
