<svg width="33" height="33" viewBox="0 0 33 33" fill="none" xmlns="http://www.w3.org/2000/svg">
<g id="icon">
<path id="Vector" d="M17.3393 8.51979C16.9964 7.83142 16.0068 7.82479 15.6607 8.51979L9.09821 21.7073C8.94934 22.0064 8.9709 22.3621 9.15484 22.641L12.75 28.0937V31.5625C12.75 32.0802 13.1697 32.5 13.6875 32.5H19.3125C19.8302 32.5 20.25 32.0802 20.25 31.5625V28.0937L23.8451 22.641C24.029 22.3621 24.0506 22.0064 23.9017 21.7073L17.3393 8.51979ZM18.375 30.625H14.625V28.75H18.375V30.625ZM18.8077 26.875H14.1923L11.0173 22.0595L15.5625 12.9257V22.125C15.5625 22.6427 15.9822 23.0625 16.5 23.0625C17.0177 23.0625 17.4375 22.6427 17.4375 22.125V12.9257L21.9827 22.0595L18.8077 26.875Z" fill="#9E5CF2"/>
<path id="Vector_2" d="M29.6875 0.5C28.4653 0.5 27.4232 1.28381 27.0362 2.375H19.3125V1.4375C19.3125 0.91975 18.8927 0.5 18.375 0.5H14.625C14.1073 0.5 13.6875 0.91975 13.6875 1.4375V2.375H5.96375C5.57675 1.28381 4.53469 0.5 3.3125 0.5C1.76169 0.5 0.5 1.76169 0.5 3.3125C0.5 4.86331 1.76169 6.125 3.3125 6.125C4.53469 6.125 5.57675 5.34056 5.96375 4.24938H9.47081C5.10231 6.75819 2.375 11.3929 2.375 16.4375C2.375 16.9552 2.79475 17.375 3.3125 17.375C3.83025 17.375 4.25 16.9552 4.25 16.4375C4.25 10.781 8.23744 5.86125 13.6875 4.57613V5.1875C13.6875 5.70525 14.1073 6.125 14.625 6.125H18.375C18.8927 6.125 19.3125 5.70525 19.3125 5.1875V4.57606C24.7626 5.86125 28.75 10.781 28.75 16.4375C28.75 16.9552 29.1698 17.375 29.6875 17.375C30.2052 17.375 30.625 16.9552 30.625 16.4375C30.625 11.3994 27.9031 6.76194 23.5292 4.25H27.0362C27.4232 5.34119 28.4653 6.125 29.6875 6.125C31.2383 6.125 32.5 4.86331 32.5 3.3125C32.5 1.76169 31.2383 0.5 29.6875 0.5ZM3.3125 4.25C2.79556 4.25 2.375 3.82944 2.375 3.3125C2.375 2.79556 2.79556 2.375 3.3125 2.375C3.82944 2.375 4.25 2.79556 4.25 3.3125C4.25 3.82944 3.82944 4.25 3.3125 4.25ZM17.4375 4.25H15.5625V2.375H17.4375V4.25ZM29.6875 4.25C29.1706 4.25 28.75 3.82944 28.75 3.3125C28.75 2.79556 29.1706 2.375 29.6875 2.375C30.2044 2.375 30.625 2.79556 30.625 3.3125C30.625 3.82944 30.2044 4.25 29.6875 4.25Z" fill="#9E5CF2"/>
</g>
</svg>
