<svg width="20" height="16" viewBox="0 0 20 16" fill="none" xmlns="http://www.w3.org/2000/svg">
<path d="M18.875 2.59375C18.7812 2.25 18.4688 2 18.125 2H14.9688C15 1.625 15 1.28125 14.9688 0.96875C14.9688 0.4375 14.5312 0 13.9688 0H6C5.4375 0 5 0.4375 5 0.96875C4.96875 1.28125 4.96875 1.625 5 2H1.84375C1.5 2 1.1875 2.25 1.09375 2.59375C1.09375 2.6875 0.5 5.25 2.15625 7.6875C3.3125 9.4375 5.28125 10.6562 8 11.375C8.59375 11.5312 8.96875 12.0625 8.96875 12.6562C9 13.4062 8.375 14 7.625 14H7.5C6.65625 14 6 14.6875 6 15.5C6 15.7812 6.21875 16 6.46875 16H13.4375C13.7188 16 13.9062 15.7812 13.9062 15.5C13.9062 14.6875 13.2188 14 12.4062 14H12.25C11.5 14 10.9062 13.4062 10.9062 12.6562C10.9062 12.0625 11.3125 11.5312 11.875 11.375C14.5938 10.6562 16.5625 9.4375 17.75 7.6875C19.4688 5.25 18.875 2.6875 18.875 2.59375ZM3.40625 6.875C2.53125 5.59375 2.46875 4.25 2.5 3.5H5C5.1875 5.375 5.65625 7.625 6.8125 9.4375C5.28125 8.8125 4.125 7.96875 3.40625 6.875ZM16.5625 6.875C15.8438 7.96875 14.6875 8.8125 13.1562 9.4375C14.3125 7.625 14.7812 5.375 14.9688 3.5H17.4688C17.5 4.25 17.4375 5.59375 16.5625 6.875Z" fill="#080808" fill-opacity="0.25"/>
</svg>
