<svg width="40" height="46" viewBox="0 0 40 46" fill="none" xmlns="http://www.w3.org/2000/svg">
<circle cx="20" cy="26" r="18.5" stroke="#E6E6E6" stroke-width="3" stroke-dasharray="4 4"/>
<circle cx="20" cy="26" r="18.5" stroke="url(#paint0_linear_559_1745)" stroke-width="3"/>
<circle cx="20" cy="26" r="17" fill="#FAFAFA"/>
<path d="M16.8594 27.75H18.5938C18.5938 28.3646 18.7526 28.8307 19.0703 29.1484C19.3932 29.4609 19.8646 29.6172 20.4844 29.6172C21.1042 29.6172 21.5807 29.4375 21.9141 29.0781C22.2474 28.7188 22.4141 28.151 22.4141 27.375C22.4141 26.5781 22.25 25.9583 21.9219 25.5156C21.5938 25.0677 21.0833 24.8438 20.3906 24.8438C19.9688 24.8438 19.5729 24.9375 19.2031 25.125C18.8385 25.3073 18.4661 25.5938 18.0859 25.9844L16.9609 25.3438L17.4375 19.9219H24.0469V21.3359H18.9141L18.6719 24.0859C18.9844 23.8932 19.3125 23.7396 19.6562 23.625C20.0052 23.5052 20.3776 23.4453 20.7734 23.4453C21.8516 23.4453 22.6797 23.7917 23.2578 24.4844C23.8411 25.1771 24.1328 26.1094 24.1328 27.2812C24.1328 28.5104 23.7995 29.4531 23.1328 30.1094C22.4714 30.7604 21.5573 31.0859 20.3906 31.0859C19.6562 31.0859 19.0234 30.9557 18.4922 30.6953C17.9661 30.4349 17.5625 30.0573 17.2812 29.5625C17 29.0625 16.8594 28.4583 16.8594 27.75Z" fill="black"/>
<path d="M22.1797 4.03906L25.5312 4.53125C25.8125 4.57812 26.0469 4.76562 26.1406 5.04688C26.2344 5.30469 26.1641 5.60938 25.9531 5.79688L23.5156 8.21094L24.1016 11.6328C24.1484 11.9141 24.0312 12.1953 23.7969 12.3594C23.5625 12.5469 23.2578 12.5469 23 12.4297L20 10.8125L16.9766 12.4297C16.7422 12.5469 16.4141 12.5469 16.2031 12.3594C15.9688 12.1953 15.8516 11.9141 15.8984 11.6328L16.4609 8.21094L14.0234 5.79688C13.8125 5.60938 13.7422 5.30469 13.8359 5.04688C13.9297 4.76562 14.1641 4.57812 14.4453 4.53125L17.8203 4.03906L19.3203 0.921875C19.4375 0.664062 19.6953 0.5 20 0.5C20.2812 0.5 20.5391 0.664062 20.6562 0.921875L22.1797 4.03906Z" fill="#FF991F"/>
<defs>
<linearGradient id="paint0_linear_559_1745" x1="40" y1="26" x2="2.4" y2="26" gradientUnits="userSpaceOnUse">
<stop stop-color="#FFC887"/>
<stop offset="1" stop-color="#FFF1E0"/>
</linearGradient>
</defs>
</svg>
