<svg width="40" height="46" viewBox="0 0 40 46" fill="none" xmlns="http://www.w3.org/2000/svg">
<circle cx="20" cy="26" r="18.5" stroke="#E6E6E6" stroke-width="3" stroke-dasharray="4 4"/>
<circle cx="20" cy="26" r="18.5" stroke="url(#paint0_linear_368_12933)" stroke-width="3"/>
<circle cx="20" cy="26" r="17" fill="#FAFAFA"/>
<path d="M14.1875 19.7734C14.4688 19.7734 14.7604 19.8073 15.0625 19.875C15.3698 19.9375 15.6823 20.0365 16 20.1719L15.5156 21.7969C15.2917 21.7031 15.0417 21.6302 14.7656 21.5781C14.4948 21.5208 14.2318 21.4922 13.9766 21.4922C13.3464 21.4922 12.849 21.6979 12.4844 22.1094C12.125 22.5208 11.9375 23.0781 11.9219 23.7812C12.0156 23.9948 12.1693 24.1719 12.3828 24.3125C12.6016 24.4479 12.8542 24.5469 13.1406 24.6094C13.4271 24.6719 13.724 24.7031 14.0312 24.7031C14.3594 24.7031 14.6823 24.6693 15 24.6016C15.3229 24.5339 15.6016 24.4349 15.8359 24.3047L16.25 25.875C15.5156 26.2135 14.7839 26.3828 14.0547 26.3828C13.4609 26.3828 12.9036 26.2552 12.3828 26C11.862 25.7396 11.4297 25.3594 11.0859 24.8594C11.2057 25.3646 11.3047 25.862 11.3828 26.3516C11.4661 26.8359 11.5312 27.3255 11.5781 27.8203C11.625 28.3151 11.6562 28.8255 11.6719 29.3516C11.6927 29.8724 11.7031 30.4219 11.7031 31H9.94531C9.94531 29.6406 9.88281 28.3802 9.75781 27.2188C9.63802 26.0521 9.4401 24.9167 9.16406 23.8125C8.89323 22.7083 8.52865 21.5677 8.07031 20.3906L9.80469 19.8047C9.9349 20.1693 10.0677 20.5312 10.2031 20.8906C10.3385 21.25 10.4792 21.5938 10.625 21.9219C10.7708 22.2448 10.9167 22.5443 11.0625 22.8203C11.1927 21.8672 11.5339 21.1224 12.0859 20.5859C12.638 20.0443 13.3385 19.7734 14.1875 19.7734ZM18.1562 30C18.1562 29.7031 18.2604 29.4557 18.4688 29.2578C18.6823 29.0547 18.9427 28.9531 19.25 28.9531C19.5521 28.9531 19.8073 29.0547 20.0156 29.2578C20.2292 29.4557 20.3359 29.7031 20.3359 30C20.3359 30.3021 20.2292 30.5599 20.0156 30.7734C19.8073 30.9818 19.5521 31.0859 19.25 31.0859C18.9427 31.0859 18.6823 30.9818 18.4688 30.7734C18.2604 30.5599 18.1562 30.3021 18.1562 30ZM23.7344 31.2422L22.3359 30.1562C22.888 29.4375 23.3828 28.7135 23.8203 27.9844C24.263 27.25 24.651 26.4766 24.9844 25.6641C25.3177 24.8516 25.5964 23.9688 25.8203 23.0156C26.0495 22.0573 26.2266 21 26.3516 19.8438H27.9141C28.0391 21 28.2135 22.0573 28.4375 23.0156C28.6667 23.9688 28.9479 24.8516 29.2812 25.6641C29.6146 26.4766 30 27.25 30.4375 27.9844C30.8802 28.7135 31.3776 29.4375 31.9297 30.1562L30.5391 31.2422C30.1276 30.7109 29.737 30.1276 29.3672 29.4922C29.0026 28.8568 28.6667 28.1849 28.3594 27.4766C28.0573 26.7682 27.7995 26.0469 27.5859 25.3125C27.3776 24.5729 27.2266 23.8385 27.1328 23.1094C27.0339 23.8385 26.8776 24.5729 26.6641 25.3125C26.4557 26.0469 26.2005 26.7682 25.8984 27.4766C25.6016 28.1849 25.2682 28.8568 24.8984 29.4922C24.5339 30.1276 24.1458 30.7109 23.7344 31.2422Z" fill="black"/>
<path d="M22.1797 4.03906L25.5312 4.53125C25.8125 4.57812 26.0469 4.76562 26.1406 5.04688C26.2344 5.30469 26.1641 5.60938 25.9531 5.79688L23.5156 8.21094L24.1016 11.6328C24.1484 11.9141 24.0312 12.1953 23.7969 12.3594C23.5625 12.5469 23.2578 12.5469 23 12.4297L20 10.8125L16.9766 12.4297C16.7422 12.5469 16.4141 12.5469 16.2031 12.3594C15.9688 12.1953 15.8516 11.9141 15.8984 11.6328L16.4609 8.21094L14.0234 5.79688C13.8125 5.60938 13.7422 5.30469 13.8359 5.04688C13.9297 4.76562 14.1641 4.57812 14.4453 4.53125L17.8203 4.03906L19.3203 0.921875C19.4375 0.664062 19.6953 0.5 20 0.5C20.2812 0.5 20.5391 0.664062 20.6562 0.921875L22.1797 4.03906Z" fill="#FF991F"/>
<defs>
<linearGradient id="paint0_linear_368_12933" x1="40" y1="26" x2="2.4" y2="26" gradientUnits="userSpaceOnUse">
<stop stop-color="#FFC887"/>
<stop offset="1" stop-color="#FFF1E0"/>
</linearGradient>
</defs>
</svg>
