<svg width="33" height="21" viewBox="0 0 33 21" fill="none" xmlns="http://www.w3.org/2000/svg">
<g id="icon">
<g id="Icon">
<path id="Vector" d="M23.5698 4.5117C23.5698 2.23765 21.7376 0.394745 19.4767 0.394745H4.59302C2.33219 0.394745 0.5 2.23765 0.5 4.5117V16.4883C0.5 18.7624 2.33219 20.6053 4.59302 20.6053H19.4767C21.7376 20.6053 23.5698 18.7624 23.5698 16.4883V4.5117ZM21.3372 4.5117V16.4883C21.3372 17.5213 20.5037 18.3597 19.4767 18.3597H4.59302C3.56605 18.3597 2.73256 17.5213 2.73256 16.4883V4.5117C2.73256 3.47872 3.56605 2.64036 4.59302 2.64036H19.4767C20.5037 2.64036 21.3372 3.47872 21.3372 4.5117Z" fill="#FF3C31"/>
<path id="Vector_2" d="M32.4999 16.8761V4.12402C32.4999 3.18535 32.0013 2.32004 31.1932 1.85295C30.3835 1.38437 29.3878 1.38886 28.5826 1.86044C25.9377 3.41291 21.8908 5.78727 21.8908 5.78727C21.5485 5.98937 21.3372 6.35765 21.3372 6.75737V14.2428C21.3372 14.6425 21.5485 15.0108 21.8908 15.2129C21.8908 15.2129 25.9377 17.5872 28.5826 19.1397C29.3878 19.6113 30.3835 19.6158 31.1932 19.1472C32.0013 18.6801 32.4999 17.8148 32.4999 16.8761ZM30.2674 4.12402V16.8761C30.2674 17.0108 30.1959 17.1336 30.0813 17.201C29.9653 17.2668 29.8224 17.2668 29.7078 17.1995L23.5697 13.5975V7.40261L29.7078 3.80065C29.8224 3.73328 29.9653 3.73328 30.0813 3.79915C30.1959 3.86652 30.2674 3.98928 30.2674 4.12402Z" fill="#FF3C31"/>
<path id="Vector_3" d="M16.5001 4.88591H13.5234C12.9072 4.88591 12.4071 5.38893 12.4071 6.00872C12.4071 6.62851 12.9072 7.13152 13.5234 7.13152H16.5001C17.1163 7.13152 17.6164 6.62851 17.6164 6.00872C17.6164 5.38893 17.1163 4.88591 16.5001 4.88591Z" fill="#FF3C31"/>
</g>
</g>
</svg>
