<svg width="167" height="144" viewBox="0 0 167 144" fill="none" xmlns="http://www.w3.org/2000/svg">
<path d="M0.704 136C0.512 136 0.341333 135.936 0.192 135.808C0.064 135.659 0 135.488 0 135.296C0 135.211 0.0106667 135.136 0.032 135.072L7.168 114.656C7.232 114.421 7.38133 114.187 7.616 113.952C7.85067 113.717 8.18133 113.6 8.608 113.6H15.552C15.9787 113.6 16.3093 113.717 16.544 113.952C16.7787 114.187 16.928 114.421 16.992 114.656L24.128 135.072C24.1493 135.136 24.16 135.211 24.16 135.296C24.16 135.488 24.0853 135.659 23.936 135.808C23.808 135.936 23.648 136 23.456 136H17.536C17.1307 136 16.832 135.915 16.64 135.744C16.4693 135.552 16.352 135.371 16.288 135.2L15.52 133.088H8.64L7.872 135.2C7.808 135.371 7.69067 135.552 7.52 135.744C7.34933 135.915 7.05067 136 6.624 136H0.704ZM10.272 126.848H13.888L12.064 120.896L10.272 126.848ZM35.529 136.32C33.481 136.32 31.6677 136.021 30.089 135.424C28.5103 134.827 27.2517 133.888 26.313 132.608C25.3957 131.328 24.8943 129.675 24.809 127.648C24.7877 126.773 24.777 125.835 24.777 124.832C24.777 123.829 24.7877 122.869 24.809 121.952C24.8943 119.968 25.4063 118.336 26.345 117.056C27.305 115.776 28.5743 114.827 30.153 114.208C31.753 113.589 33.545 113.28 35.529 113.28C36.8943 113.28 38.2063 113.44 39.465 113.76C40.745 114.059 41.897 114.539 42.921 115.2C43.945 115.861 44.7557 116.715 45.353 117.76C45.9717 118.784 46.2917 120.021 46.313 121.472C46.313 121.664 46.2383 121.835 46.089 121.984C45.961 122.112 45.801 122.176 45.609 122.176H39.081C38.7397 122.176 38.4837 122.112 38.313 121.984C38.1637 121.835 38.025 121.589 37.897 121.248C37.6623 120.565 37.3423 120.107 36.937 119.872C36.5317 119.637 36.0517 119.52 35.497 119.52C34.793 119.52 34.2277 119.712 33.801 120.096C33.3957 120.459 33.1717 121.131 33.129 122.112C33.065 123.861 33.065 125.653 33.129 127.488C33.1717 128.469 33.3957 129.152 33.801 129.536C34.2277 129.899 34.793 130.08 35.497 130.08C36.0517 130.08 36.5317 129.952 36.937 129.696C37.3637 129.44 37.6837 128.992 37.897 128.352C38.0037 127.989 38.1423 127.744 38.313 127.616C38.4837 127.488 38.7397 127.424 39.081 127.424H45.609C45.801 127.424 45.961 127.499 46.089 127.648C46.2383 127.776 46.313 127.936 46.313 128.128C46.2917 129.579 45.9717 130.827 45.353 131.872C44.7557 132.896 43.945 133.739 42.921 134.4C41.897 135.061 40.745 135.552 39.465 135.872C38.2063 136.171 36.8943 136.32 35.529 136.32ZM47.454 136C47.262 136 47.0913 135.936 46.942 135.808C46.814 135.659 46.75 135.488 46.75 135.296C46.75 135.211 46.7607 135.136 46.782 135.072L53.918 114.656C53.982 114.421 54.1313 114.187 54.366 113.952C54.6007 113.717 54.9313 113.6 55.358 113.6H62.302C62.7287 113.6 63.0593 113.717 63.294 113.952C63.5287 114.187 63.678 114.421 63.742 114.656L70.878 135.072C70.8993 135.136 70.91 135.211 70.91 135.296C70.91 135.488 70.8353 135.659 70.686 135.808C70.558 135.936 70.398 136 70.206 136H64.286C63.8807 136 63.582 135.915 63.39 135.744C63.2193 135.552 63.102 135.371 63.038 135.2L62.27 133.088H55.39L54.622 135.2C54.558 135.371 54.4407 135.552 54.27 135.744C54.0993 135.915 53.8007 136 53.374 136H47.454ZM57.022 126.848H60.638L58.814 120.896L57.022 126.848ZM73.5303 136C73.2956 136 73.0929 135.915 72.9223 135.744C72.7516 135.573 72.6663 135.371 72.6663 135.136V114.464C72.6663 114.229 72.7516 114.027 72.9223 113.856C73.0929 113.685 73.2956 113.6 73.5303 113.6H82.7463C84.7516 113.6 86.5436 113.941 88.1223 114.624C89.7009 115.285 90.9596 116.267 91.8983 117.568C92.8583 118.869 93.3703 120.48 93.4343 122.4C93.4769 123.317 93.4983 124.128 93.4983 124.832C93.4983 125.515 93.4769 126.293 93.4343 127.168C93.3489 129.173 92.8583 130.837 91.9623 132.16C91.0663 133.461 89.8396 134.432 88.2823 135.072C86.7463 135.691 84.9543 136 82.9063 136H73.5303ZM80.6663 129.76H82.7463C83.2156 129.76 83.6316 129.675 83.9943 129.504C84.3783 129.312 84.6876 129.024 84.9223 128.64C85.1569 128.256 85.2849 127.765 85.3063 127.168C85.3489 126.549 85.3703 125.995 85.3703 125.504C85.3916 125.013 85.3916 124.523 85.3703 124.032C85.3703 123.52 85.3489 122.976 85.3063 122.4C85.2636 121.504 84.9756 120.853 84.4423 120.448C83.9303 120.043 83.3116 119.84 82.5863 119.84H80.6663V129.76ZM97.2178 136C96.9831 136 96.7804 135.915 96.6098 135.744C96.4391 135.573 96.3538 135.371 96.3538 135.136V114.464C96.3538 114.229 96.4391 114.027 96.6098 113.856C96.7804 113.685 96.9831 113.6 97.2178 113.6H113.634C113.868 113.6 114.071 113.685 114.242 113.856C114.412 114.027 114.498 114.229 114.498 114.464V118.976C114.498 119.211 114.412 119.413 114.242 119.584C114.071 119.755 113.868 119.84 113.634 119.84H104.034V121.856H112.93C113.164 121.856 113.367 121.941 113.538 122.112C113.708 122.283 113.794 122.485 113.794 122.72V126.88C113.794 127.115 113.708 127.317 113.538 127.488C113.367 127.659 113.164 127.744 112.93 127.744H104.034V129.76H113.89C114.124 129.76 114.327 129.845 114.498 130.016C114.668 130.187 114.754 130.389 114.754 130.624V135.136C114.754 135.371 114.668 135.573 114.498 135.744C114.327 135.915 114.124 136 113.89 136H97.2178ZM118.562 136C118.327 136 118.124 135.915 117.954 135.744C117.783 135.573 117.698 135.371 117.698 135.136V114.464C117.698 114.229 117.783 114.027 117.954 113.856C118.124 113.685 118.327 113.6 118.562 113.6H123.618C124.044 113.6 124.364 113.717 124.578 113.952C124.791 114.187 124.93 114.357 124.994 114.464L129.634 122.144L134.274 114.464C134.338 114.357 134.476 114.187 134.69 113.952C134.903 113.717 135.223 113.6 135.65 113.6H140.706C140.94 113.6 141.143 113.685 141.314 113.856C141.484 114.027 141.57 114.229 141.57 114.464V135.136C141.57 135.371 141.484 135.573 141.314 135.744C141.143 135.915 140.94 136 140.706 136H134.914C134.679 136 134.476 135.915 134.306 135.744C134.135 135.573 134.05 135.371 134.05 135.136V126.368L131.938 129.824C131.831 129.995 131.682 130.176 131.49 130.368C131.319 130.539 131.074 130.624 130.754 130.624H128.514C128.194 130.624 127.938 130.539 127.746 130.368C127.575 130.176 127.436 129.995 127.33 129.824L125.218 126.368V135.136C125.218 135.371 125.132 135.573 124.962 135.744C124.791 135.915 124.588 136 124.354 136H118.562ZM151.568 136C151.333 136 151.13 135.915 150.96 135.744C150.789 135.573 150.704 135.371 150.704 135.136V128.832L143.504 114.592C143.482 114.549 143.461 114.507 143.44 114.464C143.44 114.4 143.44 114.347 143.44 114.304C143.44 114.112 143.504 113.952 143.632 113.824C143.781 113.675 143.952 113.6 144.144 113.6H150.16C150.586 113.6 150.906 113.707 151.12 113.92C151.333 114.133 151.461 114.293 151.504 114.4L154.704 120.832L157.904 114.4C157.946 114.293 158.074 114.133 158.288 113.92C158.501 113.707 158.821 113.6 159.248 113.6H165.264C165.456 113.6 165.616 113.675 165.744 113.824C165.893 113.952 165.968 114.112 165.968 114.304C165.968 114.347 165.957 114.4 165.936 114.464C165.936 114.507 165.925 114.549 165.904 114.592L158.704 128.832V135.136C158.704 135.371 158.618 135.573 158.448 135.744C158.277 135.915 158.074 136 157.84 136H151.568Z" fill="#080808"/>
<path d="M105.465 28.6738C93.5169 27.8245 86.5456 31.7149 82.8529 34.9935C79.1399 31.6756 72.1095 27.8047 60.0432 28.6935C59.7667 28.7133 59.4901 28.7331 59.2334 28.7331L60.1107 21.8375C60.1786 21.304 60.5351 20.8401 61.0345 20.6404C75.3988 14.8958 89.6167 14.7901 103.688 20.712C104.174 20.9168 104.519 21.3741 104.587 21.8975L105.465 28.6738Z" fill="#9E5CF2"/>
<path d="M119.841 46.5272C115.693 41.0373 109.097 37.4827 101.692 37.4827C93.871 37.4827 86.959 41.4519 82.8516 47.4556C78.7437 41.4519 71.8317 37.4827 64.0113 37.4827C56.6056 37.4827 50.0094 41.0373 45.8427 46.5272C39.3651 39.5166 40.8265 31.2418 42.11 27.2921C42.3669 26.4826 43.4332 26.3838 43.8679 27.1147C45.2304 29.4251 48.7062 32.7427 57.4349 32.7625C58.3432 32.7625 59.3109 32.723 60.3379 32.6441C77.8749 31.3209 82.8516 41.0373 82.8516 41.0373C82.8516 41.0373 87.828 31.3209 105.365 32.6441C106.392 32.723 107.359 32.7625 108.248 32.7625C116.977 32.7427 120.453 29.4251 121.816 27.1147C122.25 26.3838 123.316 26.4826 123.573 27.2921C124.857 31.2418 126.338 39.5364 119.841 46.5272Z" fill="#9E5CF2"/>
<path d="M88.6372 78.9356C88.0051 81.1472 86.5833 83.7146 83.4829 85.8081C83.1075 86.0646 82.594 86.0646 82.2189 85.8081C79.1183 83.7146 77.6964 81.1472 77.0646 78.9356C79.3159 77.3556 81.2908 75.361 82.851 73.0898C84.411 75.361 86.3859 77.3556 88.6372 78.9356Z" fill="#9E5CF2"/>
<path d="M101.692 41.4312C91.2844 41.4312 82.8519 49.8636 82.8519 60.2712C82.8519 70.6787 91.2844 79.1112 101.692 79.1112C112.099 79.1112 120.532 70.6787 120.532 60.2712C120.532 49.8636 112.099 41.4312 101.692 41.4312ZM101.692 72.8708C94.7404 72.8708 89.0923 67.2227 89.0923 60.2712C89.0923 53.3196 94.7404 47.6716 101.692 47.6716C108.624 47.6716 114.292 53.3196 114.292 60.2712C114.292 67.2227 108.624 72.8708 101.692 72.8708Z" fill="#9E5CF2"/>
<path d="M121.737 15.3248L116.622 17.0231V24.1328C116.622 25.2386 115.733 26.1077 114.647 26.1077C113.561 26.1077 112.672 25.2386 112.672 24.1328V18.3266L108.051 19.8668C107.518 18.6229 106.491 17.5959 105.227 17.0627C97.782 13.9423 90.1393 12.3427 82.4966 12.3427C74.9527 12.3427 67.2307 13.903 59.5685 16.9836C58.3241 17.4773 57.3366 18.4055 56.7443 19.5708L43.9473 15.3248C42.6636 14.9102 42.6636 12.9944 43.9473 12.5797L80.9957 0.296155C82.2003 -0.0987183 83.484 -0.0987183 84.6886 0.296155L121.737 12.5797C123.021 12.9943 123.021 14.9101 121.737 15.3248Z" fill="#9E5CF2"/>
<path d="M101.692 51.624C96.9125 51.624 93.0419 55.4947 93.0419 60.2739C93.0419 65.0334 96.9125 68.9238 101.692 68.9238C106.451 68.9238 110.342 65.0334 110.342 60.2739C110.342 55.4947 106.451 51.624 101.692 51.624ZM99.1663 60.2867C98.0508 60.2867 97.1427 59.3788 97.1427 58.2634C97.1427 58.213 97.1447 58.1629 97.1483 58.1137C97.2252 57.0677 98.101 56.2401 99.1663 56.2401C100.282 56.2401 101.19 57.1479 101.19 58.2634C101.19 59.3605 100.263 60.2867 99.1663 60.2867Z" fill="#9E5CF2"/>
<path d="M64.0137 51.6235C59.2347 51.6235 55.364 55.4942 55.364 60.2734C55.364 65.0329 59.2347 68.9233 64.0137 68.9233C68.7734 68.9233 72.6638 65.0329 72.6638 60.2734C72.6638 55.4942 68.7734 51.6235 64.0137 51.6235ZM61.4882 60.2862C60.3728 60.2862 59.4649 59.3783 59.4649 58.2629C59.4649 58.2125 59.4665 58.1624 59.4704 58.1132C59.5473 57.0672 60.4231 56.2396 61.4882 56.2396C62.6039 56.2396 63.5118 57.1475 63.5118 58.2629C63.5118 59.36 62.5853 60.2862 61.4882 60.2862Z" fill="#9E5CF2"/>
<path d="M64.0142 41.4312C53.6066 41.4312 45.1742 49.8636 45.1742 60.2712C45.1742 70.6787 53.6066 79.1112 64.0142 79.1112C74.4217 79.1112 82.8542 70.6787 82.8542 60.2712C82.8542 49.8636 74.4217 41.4312 64.0142 41.4312ZM64.0142 72.8708C57.0627 72.8708 51.4146 67.2227 51.4146 60.2712C51.4146 53.3196 57.0627 47.6716 64.0142 47.6716C70.946 47.6716 76.6138 53.3196 76.6138 60.2712C76.6138 67.2227 70.946 72.8708 64.0142 72.8708Z" fill="#9E5CF2"/>
</svg>
