<svg width="20" height="20" viewBox="0 0 20 20" fill="none" xmlns="http://www.w3.org/2000/svg">
<path d="M11.25 1.25V2.03125C14.1016 2.61719 16.25 5.11719 16.25 8.125V8.86719C16.25 10.7031 16.9141 12.5 18.125 13.8672L18.3984 14.1797C18.75 14.5703 18.8281 15.0781 18.6328 15.5469C18.4375 15.9766 17.9688 16.25 17.5 16.25H2.5C1.99219 16.25 1.52344 15.9766 1.32812 15.5469C1.13281 15.0781 1.21094 14.5703 1.5625 14.1797L1.83594 13.8672C3.04688 12.5 3.75 10.7031 3.75 8.86719V8.125C3.75 5.11719 5.85938 2.61719 8.75 2.03125V1.25C8.75 0.585938 9.29688 0 10 0C10.6641 0 11.25 0.585938 11.25 1.25ZM10 20C9.33594 20 8.67188 19.7656 8.20312 19.2969C7.73438 18.8281 7.5 18.1641 7.5 17.5H12.5C12.5 18.1641 12.2266 18.8281 11.7578 19.2969C11.2891 19.7656 10.625 20 10 20Z" fill="#9E5CF2"/>
</svg>
